<svg id="Calque_1" data-name="Calque 1" xmlns="http://www.w3.org/2000/svg" viewBox="0 0 27 23.25">
    <defs>
        <style>.cls-1{fill:#1d1d1b;}</style>
    </defs>
    <title>icon cloud download modifie</title>
    <g id="Page-1">
        <g id="icon-129-cloud-download">
            <path id="cloud-download" class="cls-1"
                  d="M15,27.25,11.75,24l-.75.75,4.5,4.5,4.5-4.5L19.25,24,16,27.25V16H15V27.25ZM14,22H7a4,4,0,0,1-.9-7.9h0A5.7,5.7,0,0,1,6,13a6,6,0,0,1,11.66-2A4.5,4.5,0,0,1,25,14.12h0A4,4,0,0,1,24,22H17v1h7a5,5,0,0,0,1.88-9.63h0A5.49,5.49,0,0,0,20.5,9a5.57,5.57,0,0,0-2.41.55A7,7,0,0,0,5,13c0,.14,0,.28,0,.41H5A5,5,0,0,0,7,23h7V22Z"
                  transform="translate(-2 -6)"/>
        </g>
    </g>
</svg>